<?xml version="1.0" standalone="no"?>
<!DOCTYPE svg PUBLIC "-//W3C//DTD SVG 20010904//EN"
 "http://www.w3.org/TR/2001/REC-SVG-20010904/DTD/svg10.dtd">
<svg version="1.0" xmlns="http://www.w3.org/2000/svg"
 width="598.000000pt" height="598.000000pt" viewBox="0 0 598.000000 598.000000"
 preserveAspectRatio="xMidYMid meet">
<metadata>
Created by potrace 1.14, written by Peter Selinger 2001-2017
</metadata>
<g transform="translate(0.000000,598.000000) scale(0.100000,-0.100000)"
fill="#000000" stroke="none">
<path d="M0 2990 l0 -2990 598 0 598 0 -4 85 c-4 83 -4 85 27 115 17 18 31 35
31 39 0 19 -58 92 -91 114 -63 43 -114 53 -181 36 -64 -15 -130 -4 -168 28
-27 22 -31 31 -28 66 3 38 6 42 43 56 22 8 69 25 104 39 l64 25 106 -18 c58
-10 111 -18 116 -19 12 -1 95 -82 95 -93 1 -12 40 -56 45 -51 7 7 -82 126
-107 142 -13 8 -51 20 -85 26 -34 6 -82 17 -105 24 -24 7 -55 9 -70 5 -15 -4
-29 -5 -32 -2 -2 2 -44 7 -93 9 -75 4 -94 9 -127 32 -52 35 -80 75 -84 119 -5
50 41 89 74 62 12 -10 17 -7 16 11 0 3 39 6 86 8 48 1 88 6 90 12 2 5 11 6 20
3 14 -4 14 -3 2 5 -8 6 -17 9 -21 6 -4 -2 -47 -7 -96 -10 -48 -3 -94 -7 -101
-10 -23 -7 -107 43 -120 71 -22 49 -24 90 -5 113 22 26 142 47 191 33 17 -5
33 -6 37 -3 7 7 99 13 232 16 51 0 83 5 83 12 0 11 -139 10 -231 -1 -26 -3
-73 -2 -104 1 -53 7 -58 9 -72 42 -8 19 -12 40 -9 48 3 7 42 32 88 55 l83 42
108 -11 c103 -11 113 -14 200 -64 51 -28 115 -69 144 -90 48 -37 52 -44 72
-117 24 -88 26 -105 10 -95 -7 4 -5 -6 4 -22 42 -77 66 -155 67 -219 1 -84
-19 -582 -25 -627 l-7 -48 278 0 279 1 48 147 c42 129 72 283 60 304 -2 4 -6
40 -9 80 -3 40 -9 87 -14 103 -13 40 -38 222 -45 315 -20 299 -26 470 -16 470
5 0 12 -12 16 -27 11 -47 95 -157 145 -191 51 -35 81 -38 156 -14 57 18 187
97 206 126 12 17 9 -3 -3 -26 -6 -11 -11 -54 -10 -95 1 -73 1 -74 -41 -120
-24 -26 -56 -59 -73 -74 l-30 -27 -6 -159 c-5 -134 -10 -171 -33 -240 -14 -45
-33 -94 -41 -110 -8 -15 -15 -32 -15 -36 0 -5 -6 -23 -14 -40 -18 -40 -131
-334 -140 -364 -4 -13 -3 -23 2 -23 6 0 22 33 37 73 42 112 90 245 120 327 15
41 33 82 40 90 39 46 68 195 71 360 l2 115 64 60 c75 69 81 81 79 151 -3 78
24 156 75 219 25 30 56 74 70 98 l24 42 0 -32 c0 -17 7 -65 15 -105 13 -61 14
-90 4 -182 -6 -60 -15 -117 -21 -125 -5 -9 -27 -29 -49 -46 -62 -46 -70 -66
-80 -189 -14 -174 -26 -229 -74 -341 -12 -27 -30 -70 -39 -95 -10 -25 -23 -54
-28 -66 -15 -33 -57 -152 -82 -234 -12 -41 -26 -85 -30 -97 -4 -13 -4 -23 1
-23 5 0 21 39 37 87 15 49 32 97 37 108 5 11 20 54 33 95 28 86 76 209 113
290 38 81 50 137 52 231 1 46 4 93 6 104 2 11 4 28 4 37 1 17 20 40 82 94 47
40 48 43 54 111 3 32 8 74 11 93 l6 35 16 -40 c37 -93 126 -206 187 -238 48
-24 151 3 245 65 l34 23 -34 -50 c-31 -46 -82 -114 -105 -141 -5 -7 -21 -27
-35 -44 -14 -18 -39 -49 -56 -69 -40 -46 -169 -261 -249 -416 -62 -118 -117
-263 -128 -337 l-6 -38 1655 0 1654 0 0 130 c0 80 -4 130 -10 130 -5 0 -10 11
-10 25 0 14 5 25 10 25 6 0 10 16 10 35 0 25 -4 35 -16 35 -8 0 -22 7 -30 15
-14 13 -12 15 15 15 41 0 40 18 -1 22 -34 3 -95 -6 -105 -16 -10 -9 12 -79 27
-87 8 -4 29 -11 45 -15 26 -7 27 -8 8 -11 -19 -4 -21 -8 -12 -30 9 -25 9 -25
-27 -18 -26 4 -40 2 -46 -7 -7 -10 -11 -9 -23 6 -11 15 -19 16 -42 9 -23 -8
-27 -15 -25 -38 4 -27 3 -28 -37 -21 -55 8 -124 75 -115 109 8 32 -13 39 -64
21 -23 -7 -55 -15 -72 -16 -17 -1 -34 -6 -36 -10 -3 -4 -20 -8 -38 -8 -33 0
-67 24 -93 66 -12 17 -12 16 -10 -11 2 -28 0 -30 -33 -27 -19 1 -43 2 -52 3
-11 0 -15 6 -11 15 3 8 1 14 -5 12 -5 -2 -10 0 -11 5 -1 4 -9 15 -19 25 -10
10 -45 54 -79 98 -66 87 -125 144 -173 169 -69 36 -57 7 46 -104 95 -103 143
-164 116 -147 -6 3 -30 -4 -54 -18 -66 -36 -201 -36 -215 1 -5 12 -7 12 -14 1
-6 -9 -9 -6 -9 10 0 12 -6 25 -14 28 -12 5 -13 11 -5 32 20 51 29 142 29 290
0 171 -17 315 -55 459 l-13 53 51 14 c50 14 71 18 165 32 23 4 42 11 42 17 0
9 -37 45 -93 90 -15 12 -42 34 -59 50 -18 15 -69 45 -114 68 l-83 40 51 87
c27 48 54 92 58 97 5 6 5 17 0 25 -7 12 -35 15 -134 15 -123 0 -125 0 -122 22
3 12 9 30 14 40 5 10 12 42 16 70 l7 53 -33 1 c-18 1 -48 1 -65 1 -25 -1 -33
3 -33 16 -2 53 -12 179 -16 191 -3 10 -19 12 -67 7 -34 -3 -69 -7 -77 -7 -8
-1 -21 -6 -27 -12 -7 -5 -13 -7 -13 -4 0 8 -110 -30 -126 -44 -11 -9 -14 -7
-15 7 -1 11 -2 26 -3 34 0 8 17 33 39 55 51 51 107 122 125 159 8 16 34 44 57
63 57 47 202 215 242 279 20 34 43 56 64 65 17 7 34 15 37 19 3 3 24 18 48 33
87 57 184 162 249 272 l24 40 -7 -50 c-7 -52 -55 -218 -79 -270 -25 -55 -47
-100 -61 -127 -17 -32 -107 -128 -120 -128 -5 0 -20 -9 -34 -20 l-25 -20 25 0
c14 0 38 7 54 15 15 8 32 15 37 15 18 0 118 78 144 112 16 20 33 36 39 35 5
-1 10 5 11 14 0 8 8 23 18 33 16 17 17 16 17 -3 0 -12 5 -21 10 -21 6 0 6 -7
-1 -18 -12 -18 -4 -100 8 -88 3 3 11 -1 18 -7 7 -7 42 -19 79 -26 47 -9 66
-18 66 -28 0 -23 49 -61 71 -56 31 9 21 -11 -13 -26 -109 -48 -138 -64 -138
-76 0 -10 11 -12 39 -8 22 3 52 2 67 -1 l28 -7 -39 -18 c-22 -10 -53 -33 -69
-50 l-30 -31 32 0 c17 0 33 -4 36 -9 3 -5 15 -7 26 -4 16 4 19 2 14 -11 -4
-11 -13 -15 -25 -11 -22 7 -26 -13 -5 -21 8 -3 12 -12 9 -21 -4 -9 1 -19 11
-25 9 -5 14 -13 11 -19 -8 -12 14 -11 93 2 56 10 71 18 107 54 64 64 78 116
71 275 -5 108 -3 132 10 145 19 18 38 19 51 3 5 -7 15 -57 22 -110 16 -128 27
-162 62 -202 33 -38 88 -56 169 -56 60 0 90 -13 90 -39 0 -27 -22 -41 -91 -57
-126 -29 -158 -81 -168 -267 -5 -99 -9 -122 -23 -131 -13 -8 -23 -8 -35 0 -15
9 -19 31 -24 115 -11 184 -21 193 -217 188 -134 -4 -137 -3 -147 18 -5 12 -21
27 -35 33 -33 13 -161 42 -166 37 -2 -2 39 -23 91 -47 52 -23 95 -47 95 -52 0
-5 -4 -7 -9 -4 -5 4 -7 -3 -4 -14 4 -16 9 -18 24 -9 14 7 25 5 44 -7 34 -22
32 -25 -12 -19 -23 3 -64 -2 -103 -14 -36 -11 -58 -20 -50 -20 13 -1 13 -2 0
-11 -8 -5 -23 -7 -32 -4 -9 3 -30 -2 -45 -10 l-28 -15 35 -1 c29 0 32 -2 17
-11 -9 -6 -15 -14 -12 -20 10 -15 -38 -10 -59 6 -34 26 -39 16 -7 -11 29 -24
30 -27 17 -52 -7 -15 -17 -38 -21 -51 l-8 -25 33 28 c23 18 40 26 55 22 12 -3
30 1 41 9 20 15 45 20 43 8 -4 -25 3 -35 20 -30 13 3 21 -1 24 -12 2 -10 11
-2 25 27 21 40 41 59 28 27 -4 -10 1 -15 14 -15 11 0 19 -3 18 -8 -2 -4 8 -19
21 -34 19 -21 27 -25 38 -17 10 9 13 6 13 -15 0 -16 -4 -25 -10 -21 -6 4 -9 1
-8 -7 2 -7 -8 -14 -22 -16 -14 -2 -31 -11 -38 -20 -9 -12 -15 -13 -24 -4 -16
16 -51 16 -42 0 6 -10 4 -10 -7 -1 -15 15 -58 17 -79 3 -11 -7 -5 -10 25 -11
22 -1 32 -3 22 -6 -9 -2 -14 -9 -11 -15 4 -7 2 -8 -4 -4 -7 4 -17 4 -23 1 -6
-4 3 -17 22 -31 18 -13 27 -24 19 -24 -7 0 -11 -3 -7 -6 3 -4 -4 -15 -16 -25
-22 -19 -22 -19 8 -4 26 12 32 13 51 0 19 -12 23 -12 28 1 3 8 2 13 -3 10 -11
-7 -33 18 -24 27 12 13 30 7 59 -18 20 -17 30 -21 36 -12 5 8 9 6 14 -6 5 -14
9 -15 20 -6 8 7 17 9 21 6 3 -4 14 -2 24 4 11 5 19 6 18 2 -3 -20 2 -27 11
-13 8 12 10 12 10 1 0 -11 3 -11 17 0 15 13 15 12 5 -8 -7 -12 -16 -33 -21
-46 -10 -25 -10 -25 20 -10 40 20 47 10 14 -19 -26 -22 -75 -110 -75 -135 0
-8 12 -5 35 8 19 12 35 18 35 14 0 -4 6 -2 14 4 12 10 17 8 26 -9 6 -12 9 -24
6 -28 -3 -3 -6 0 -6 6 0 7 -4 12 -10 12 -5 0 -7 -7 -4 -15 4 -10 15 -12 37 -8
25 5 29 4 24 -10 -5 -12 1 -19 18 -23 14 -3 22 -10 19 -15 -3 -5 0 -9 5 -9 6
0 11 -5 11 -11 0 -5 -6 -7 -12 -3 -9 5 -10 4 -3 -4 6 -6 21 -12 35 -15 24 -4
24 -4 -7 -16 -34 -13 -41 -25 -22 -36 6 -4 8 -13 5 -21 -3 -8 -1 -14 5 -14 6
0 7 -4 4 -10 -4 -6 1 -7 11 -3 14 5 15 3 5 -15 -9 -17 -9 -21 1 -17 9 4 13 -7
15 -35 0 -22 -3 -40 -8 -40 -5 0 -9 -4 -9 -10 0 -17 25 -11 43 11 12 14 26 19
40 15 12 -3 29 -1 37 4 10 7 11 10 3 10 -7 0 -13 7 -13 15 0 8 5 15 10 15 6 0
13 -7 16 -15 4 -8 17 -15 31 -15 30 0 65 18 58 29 -2 5 8 11 23 14 29 6 56 -9
49 -27 -2 -6 8 -21 23 -33 26 -21 29 -21 41 -6 10 12 10 15 2 9 -7 -4 -13 -3
-13 2 0 6 12 13 28 17 24 6 25 8 8 14 -18 7 -18 8 -2 14 28 11 71 8 90 -6 16
-12 14 -14 -20 -30 -43 -21 -35 -41 14 -31 30 6 32 9 32 51 0 24 -4 42 -9 39
-12 -8 -41 3 -41 15 0 5 11 14 25 19 l25 9 0 2396 0 2395 -111 0 c-75 0 -108
-3 -104 -11 7 -10 -12 -8 -98 8 -15 2 -34 0 -42 -7 -9 -8 -15 -8 -20 0 -4 7
-453 10 -1501 10 l-1495 -1 29 -37 c16 -20 48 -72 72 -116 l43 -78 -80 61
c-46 35 -86 59 -95 56 -9 -4 -19 -34 -27 -78 -7 -40 -14 -81 -16 -92 -2 -11
-4 -24 -4 -29 -1 -9 -68 1 -86 12 -5 4 -26 12 -45 19 -30 11 -37 10 -52 -5
-16 -16 -16 -24 -3 -104 8 -48 19 -96 24 -107 15 -28 15 -28 -26 -36 -58 -10
-123 -44 -123 -64 0 -10 27 -47 60 -82 l60 -64 -43 -40 c-23 -22 -60 -53 -80
-70 -21 -16 -66 -56 -100 -87 l-62 -57 -3 46 c-7 100 52 409 132 693 8 30 14
56 12 58 -2 2 -13 -6 -24 -18 -11 -12 -23 -17 -26 -12 -3 5 1 15 9 22 8 7 15
20 15 29 0 10 9 36 20 59 11 22 20 46 20 52 0 6 7 24 15 40 l16 30 -341 0
c-198 0 -339 -4 -336 -9 3 -5 -1 -11 -9 -15 -8 -3 -15 -16 -15 -28 1 -22 1
-22 15 3 9 17 25 28 45 31 30 5 32 2 34 -38 1 -23 24 -56 35 -50 4 3 13 1 21
-4 12 -7 11 -12 -4 -29 -10 -11 -21 -20 -25 -19 -3 1 -13 -2 -23 -6 -9 -4 -29
-1 -46 8 -28 14 -30 14 -52 -9 -13 -14 -30 -25 -38 -25 -13 0 -14 -17 -10
-105 9 -166 45 -205 191 -205 90 0 117 -10 117 -45 0 -28 -19 -40 -86 -55 -77
-17 -146 -55 -172 -95 -26 -41 -47 -128 -57 -235 -10 -100 -18 -120 -51 -120
-19 0 -28 7 -37 30 -12 31 -26 40 -28 18 -1 -7 -2 -17 -4 -23 -1 -5 -3 -16 -3
-22 -1 -7 -13 -13 -26 -13 -25 0 -48 -20 -24 -20 7 0 22 -7 32 -15 24 -18 9
-40 -18 -29 -14 5 -15 9 -4 15 11 7 11 9 0 9 -24 0 -53 -21 -45 -33 4 -7 0 -7
-10 2 -9 7 -14 17 -11 22 3 5 1 9 -4 9 -4 0 -19 19 -32 42 -22 39 -23 52 -24
212 l-1 171 -56 -3 c-66 -3 -109 11 -109 35 0 37 17 47 92 52 l73 6 3 165 c2
91 3 191 3 223 0 52 2 57 22 57 17 0 19 2 7 9 -8 6 -17 8 -20 6 -4 -2 -8 21
-9 52 -1 31 -4 60 -7 64 -3 5 -273 9 -600 9 l-594 0 0 -2990z m2735 2742 c36
-31 52 -58 85 -138 22 -54 40 -99 40 -101 0 -4 -70 8 -94 16 -27 10 -116 14
-116 6 0 -3 9 -24 20 -45 l20 -40 -52 -27 c-29 -15 -80 -40 -113 -57 -33 -17
-64 -36 -70 -42 -5 -7 -29 -23 -52 -38 -40 -25 -42 -25 -48 -6 -4 11 -12 20
-19 20 -13 0 -86 86 -86 102 0 11 65 37 112 44 48 8 53 16 34 52 -12 22 -36
153 -36 193 0 16 28 10 93 -19 71 -33 106 -29 108 10 0 13 2 32 5 43 2 11 7
43 10 70 4 28 8 53 11 57 5 9 87 -46 148 -100z m-987 71 c-24 -56 -44 -87 -58
-91 -12 -4 -12 -2 -4 9 21 27 24 62 6 76 -15 11 -15 14 -2 23 8 5 27 10 42 10
26 0 27 -1 16 -27z m2699 1 c8 -22 -10 -49 -32 -49 -10 0 -22 7 -28 16 -15 24
-1 49 28 49 15 0 28 -7 32 -16z m542 -3 c6 -10 11 -56 12 -101 l1 -81 62 6 61
7 4 -29 c1 -15 4 -41 4 -58 1 -19 9 -34 22 -40 11 -6 21 -23 23 -37 3 -22 -2
-29 -20 -33 -22 -6 -23 -10 -25 -108 -1 -106 -11 -218 -19 -226 -2 -2 -4 5 -4
17 0 29 -28 28 -34 0 -3 -13 -15 -81 -26 -153 -32 -188 -113 -495 -131 -495
-4 0 -12 12 -18 28 -6 15 -15 34 -20 42 -14 22 -101 172 -101 174 0 1 23 10
51 21 68 27 77 46 44 89 -14 19 -41 44 -60 57 l-33 23 33 37 c48 53 107 148
103 167 -3 17 -33 25 -122 36 -27 3 -51 7 -53 10 -5 4 1 32 13 71 24 74 34
129 25 138 -9 9 -136 -10 -200 -30 -17 -5 -3 7 57 49 81 56 82 58 70 77 -14
23 -4 51 22 58 11 3 17 9 14 14 -3 5 -9 7 -14 4 -5 -3 -12 0 -16 7 -4 7 -4 10
0 7 4 -4 44 6 89 22 45 16 89 29 98 29 13 0 18 14 23 60 4 33 4 75 0 95 -3 19
-4 42 0 50 8 21 53 19 65 -4z m-968 -63 c7 -13 12 -25 11 -28 -6 -19 24 -69
54 -88 21 -14 34 -29 31 -37 -8 -18 4 -27 19 -14 21 17 59 7 59 -16 0 -14 10
-22 35 -29 19 -6 40 -16 45 -24 13 -16 87 -13 92 5 2 6 -8 13 -24 16 -25 4
-24 4 7 5 29 2 38 -3 53 -29 10 -18 16 -33 15 -34 -2 -1 -18 -10 -35 -19 -29
-15 -36 -14 -35 4 0 3 -14 6 -31 7 -32 1 -32 1 -7 -10 l25 -11 -33 -4 c-28 -3
-31 -6 -21 -18 10 -12 9 -13 -6 -8 -13 5 -16 4 -11 -4 4 -7 4 -12 0 -12 -14 0
-94 44 -94 52 0 4 -6 8 -13 8 -7 0 -29 9 -49 19 -19 11 -38 18 -40 15 -3 -2
-11 2 -18 11 -7 8 -22 15 -34 15 -12 0 -26 4 -32 10 -5 5 -37 15 -69 21 -33 6
-64 14 -70 19 -9 7 -49 19 -85 26 -8 2 -44 8 -80 15 -36 7 -76 18 -90 24 -14
7 -31 10 -39 7 -8 -2 -11 0 -8 5 4 6 -5 9 -21 7 -29 -4 -112 16 -112 27 0 7
71 -4 88 -15 8 -5 10 -1 5 11 -6 15 -5 16 9 5 15 -12 16 -10 12 16 -4 22 0 31
12 36 10 4 21 2 24 -5 6 -8 13 -8 28 0 26 14 67 0 82 -29 11 -20 11 -20 43 3
25 19 38 23 59 17 17 -5 28 -4 30 2 3 8 10 8 24 0 15 -8 35 -4 89 18 87 35 92
35 106 8z m-421 2 c0 -13 -11 -13 -30 0 -12 8 -11 10 8 10 12 0 22 -4 22 -10z
m1164 -73 c-5 -15 33 -41 41 -27 11 18 25 10 22 -12 -4 -25 -64 -52 -82 -38
-12 10 -13 69 -1 88 9 15 27 6 20 -11z m-65 -6 c17 -11 8 -27 -19 -34 -16 -4
-20 0 -20 19 0 25 15 30 39 15z m911 -66 c17 -21 3 -57 -22 -53 -30 4 -45 32
-29 52 17 20 35 20 51 1z m-850 -254 c0 -14 -40 -144 -49 -161 -4 -8 -4 -25 0
-38 7 -18 16 -22 47 -22 67 0 132 -12 132 -25 0 -19 -62 -107 -104 -147 l-39
-38 64 -59 c72 -66 72 -78 -4 -104 l-43 -14 -34 48 c-19 27 -38 49 -42 49 -5
0 -8 5 -8 10 0 12 -84 115 -131 163 -34 34 -36 43 -9 52 47 15 14 49 -58 61
-22 3 -55 15 -73 26 l-32 19 74 69 c68 64 78 71 143 85 39 8 89 19 111 24 54
12 55 12 55 2z m-3990 -96 c19 -23 3 -57 -27 -53 -34 4 -51 31 -34 52 17 20
45 21 61 1z m370 -176 c4 -13 4 -34 -1 -46 -6 -18 -13 -20 -36 -14 -38 10 -46
62 -11 79 31 14 41 10 48 -19z m4329 12 c6 -10 13 -70 17 -132 13 -222 82
-302 314 -364 88 -23 120 -42 120 -70 0 -30 -29 -44 -118 -59 -112 -19 -180
-49 -161 -72 16 -19 4 -30 -16 -14 -40 33 -90 -78 -109 -245 -9 -78 -10 -115
-2 -127 5 -9 7 -21 3 -25 -5 -4 -12 -1 -17 7 -7 11 -10 1 -10 -32 0 -27 -4
-48 -9 -48 -5 0 -4 -20 1 -46 5 -25 7 -57 3 -72 -4 -15 -6 -81 -5 -147 1 -119
1 -121 -27 -152 -26 -29 -32 -31 -93 -30 l-65 2 -7 85 c-3 47 -11 123 -17 170
-6 47 -11 91 -11 98 0 7 -4 11 -8 8 -4 -2 -6 10 -4 28 2 20 -2 39 -11 48 -14
14 -14 18 0 37 14 20 13 23 -3 36 -18 13 -18 14 -1 15 12 0 17 8 17 28 0 21
-2 24 -10 12 -8 -12 -10 -10 -10 8 0 13 7 30 15 38 11 12 12 20 5 35 -11 19
-10 20 26 31 8 2 4 19 -11 51 -13 26 -19 45 -15 42 13 -8 1 126 -12 143 -7 8
-8 16 -2 20 16 11 18 82 2 82 -11 0 -11 2 0 9 21 13 -45 21 -103 11 -27 -4
-43 -8 -35 -9 12 -1 11 -5 -4 -16 -11 -8 -17 -15 -13 -15 4 0 -1 -10 -13 -22
-20 -21 -21 -21 -38 -4 -9 11 -11 16 -4 12 8 -5 12 3 12 28 0 25 -6 38 -20 46
-11 6 -20 21 -20 34 0 41 22 49 113 44 93 -6 113 -2 97 16 -7 9 -7 22 1 44 10
30 8 102 -6 194 -8 48 -8 48 28 63 48 20 66 19 65 -2 -1 -10 13 -65 31 -122
29 -92 34 -101 46 -84 26 37 33 92 27 221 -6 156 -1 182 33 182 14 0 29 -8 34
-19z m-154 -81 c3 -5 -1 -10 -10 -10 -9 0 -13 5 -10 10 3 6 8 10 10 10 2 0 7
-4 10 -10z m-4172 -44 c4 -10 1 -13 -8 -9 -8 3 -12 9 -9 14 7 12 11 11 17 -5z
m-2 -49 c-10 -9 -11 -8 -5 6 3 10 9 15 12 12 3 -3 0 -11 -7 -18z m-16 -47 c-3
-5 1 -10 9 -10 8 0 17 -4 20 -8 8 -13 -28 -11 -36 2 -7 10 -2 26 8 26 3 0 2
-4 -1 -10z m-155 -42 c112 -43 251 -148 281 -213 5 -11 21 -40 36 -65 14 -24
32 -67 40 -95 15 -54 26 -223 15 -240 -3 -5 -7 -16 -9 -24 -5 -35 -37 -120
-59 -159 -17 -28 -23 -50 -19 -64 4 -11 39 -51 78 -89 39 -38 68 -71 66 -74
-9 -8 -231 64 -247 80 -3 3 -19 -6 -36 -19 -35 -26 -110 -66 -125 -66 -5 0
-22 -5 -38 -11 -41 -17 -69 -21 -151 -21 -137 -1 -283 61 -382 161 -55 56
-120 159 -120 190 0 9 -4 21 -10 27 -15 15 -31 155 -24 205 3 24 7 53 9 64 6
42 35 113 69 171 77 130 193 216 339 249 74 17 235 13 287 -7z m180 -7 c0 -5
-8 -15 -17 -22 -16 -12 -17 -12 -6 2 7 9 10 19 6 22 -3 4 -1 7 5 7 7 0 12 -4
12 -9z m590 -166 c0 -12 -19 -12 -23 0 -4 9 -1 12 9 8 7 -3 14 -7 14 -8z
m2447 -57 c97 -134 138 -208 189 -345 19 -51 37 -100 39 -110 3 -10 11 -45 20
-78 19 -79 31 -155 40 -250 4 -50 3 -57 -8 -41 -32 50 -110 136 -163 181 -32
27 -67 57 -78 67 -29 26 -164 93 -238 118 l-66 22 68 137 c69 137 108 230 131
309 7 23 16 42 20 42 5 0 25 -24 46 -52z m867 -197 c4 -5 -1 -8 -10 -7 -9 1
-21 10 -26 20 -9 16 -7 16 10 7 12 -6 23 -15 26 -20z m-10 -36 c14 -13 26 -31
26 -40 0 -8 4 -15 9 -15 5 0 11 -21 14 -47 3 -27 9 -64 15 -83 l10 -35 1 40
c1 30 4 36 13 27 6 -6 11 -32 9 -58 -2 -39 1 -46 18 -51 12 -3 21 -12 21 -19
0 -8 7 -14 15 -14 9 0 15 -9 15 -22 0 -17 -3 -19 -9 -10 -6 10 -10 6 -15 -14
-5 -18 -3 -30 4 -32 7 -3 6 -10 -5 -22 -18 -20 -12 -60 8 -60 17 0 14 -319 -3
-330 -9 -6 -8 -14 5 -33 9 -15 13 -32 9 -38 -5 -8 -3 -9 6 -4 9 6 11 0 5 -23
-5 -23 -2 -33 13 -44 10 -7 21 -20 25 -28 8 -18 14 -27 94 -150 63 -98 80
-149 53 -157 -12 -4 -13 -3 -1 5 7 5 10 15 7 21 -11 18 -37 13 -43 -9 -3 -10
-13 -22 -22 -25 -9 -3 -23 -25 -30 -51 -9 -31 -18 -44 -27 -40 -9 3 -14 -2
-14 -14 0 -12 -8 -20 -22 -22 -18 -2 -24 -11 -26 -36 -2 -18 -10 -36 -18 -39
-18 -7 -84 37 -84 55 0 14 -56 72 -70 72 -4 0 -1 33 5 73 17 95 22 131 29 197
4 30 8 73 11 95 7 65 5 352 -4 455 -5 65 -4 100 3 109 8 11 8 13 -1 7 -9 -5
-13 1 -13 21 0 16 6 35 13 42 10 10 9 12 -2 9 -14 -3 -28 39 -34 103 -1 14 -8
34 -16 43 -7 9 -11 16 -8 16 3 0 2 14 -3 30 -5 19 -5 28 1 25 5 -4 5 4 -1 20
-11 30 -10 75 3 75 4 0 5 5 2 10 -4 6 -11 8 -16 5 -5 -4 -9 -4 -9 -1 0 2 -3
11 -6 20 -9 23 9 19 40 -9z m-4844 -50 c20 -25 8 -50 -25 -50 -21 0 -31 5 -33
18 -4 21 14 47 33 47 7 0 18 -7 25 -15z m4940 -70 c0 -8 -4 -15 -10 -15 -5 0
-10 7 -10 15 0 8 5 15 10 15 6 0 10 -7 10 -15z m755 -170 c0 -23 -5 -31 -21
-33 -27 -4 -47 21 -39 48 5 16 14 20 33 18 23 -2 27 -8 27 -33z m-1930 -41
c91 -29 188 -77 290 -143 88 -56 84 -53 166 -131 l69 -66 -5 -134 c-5 -150
-13 -246 -21 -273 -5 -16 -8 -17 -22 -4 -26 22 -103 62 -152 80 -53 19 -250
73 -300 81 -75 14 -252 23 -400 22 -151 -1 -156 -2 -207 -30 -37 -20 -60 -27
-80 -23 -15 4 -43 9 -61 13 -45 9 -47 19 -9 38 59 30 189 120 245 169 102 90
273 282 345 386 16 23 36 41 45 41 10 0 53 -12 97 -26z m-496 -81 c-60 -123
-194 -316 -318 -455 -31 -35 -37 -38 -73 -34 -28 4 -46 13 -61 33 -54 71 -134
128 -217 155 -8 3 10 10 40 18 90 20 226 68 315 110 46 22 86 40 89 40 11 0
169 124 211 165 22 22 42 39 43 38 2 -1 -11 -32 -29 -70z m-620 35 c-40 -75
-181 -231 -221 -244 -16 -5 -163 40 -181 56 -4 3 16 17 45 29 135 59 322 156
347 179 19 18 25 8 10 -20z m-2443 -98 l44 -40 -49 0 c-27 0 -56 3 -65 6 -29
11 -14 74 17 74 6 0 29 -18 53 -40z m853 -80 c35 -9 77 -40 53 -40 -7 0 -10
-5 -7 -10 4 -6 10 -8 15 -5 13 8 20 -10 22 -51 1 -26 6 -38 20 -42 26 -6 22
-18 -12 -38 -36 -22 -42 -37 -30 -69 11 -30 2 -85 -14 -85 -6 0 -2 -6 9 -12
19 -12 18 -13 -10 -18 -21 -4 -31 -12 -33 -28 -2 -12 1 -22 6 -22 5 0 14 -11
20 -25 7 -15 8 -25 2 -25 -6 0 -10 6 -11 13 0 10 -2 10 -6 0 -2 -7 -13 -13
-24 -13 -13 0 -19 -7 -19 -22 l0 -21 -23 21 c-21 20 -22 26 -19 179 4 188 4
170 0 261 -3 61 -1 71 12 66 8 -3 30 -10 49 -14z m1125 -75 c33 -9 83 -23 109
-31 42 -14 46 -17 31 -29 -11 -7 -15 -19 -11 -29 6 -14 19 -17 79 -15 76 3
128 -7 128 -22 0 -5 6 -9 14 -9 8 0 28 -11 44 -25 17 -14 33 -25 37 -25 4 0
25 -14 47 -32 57 -45 81 -103 80 -198 0 -105 -13 -144 -80 -247 -110 -166
-227 -243 -370 -243 -73 0 -194 23 -270 51 -56 20 -186 91 -214 116 -21 19
-65 109 -73 148 -11 60 -13 71 -20 100 -7 29 -7 29 29 -12 42 -48 59 -51 121
-23 50 23 145 29 242 17 150 -18 300 -105 378 -217 35 -51 50 -52 41 -2 -12
72 -12 77 7 74 36 -6 14 26 -75 111 -84 81 -118 103 -223 147 -46 19 -161 41
-219 41 -58 0 -101 -7 -191 -30 -22 -6 -58 -11 -80 -11 l-40 0 -3 46 c-2 40 0
45 12 35 12 -10 17 -5 28 31 6 24 12 48 13 53 0 6 3 15 6 20 4 6 9 23 13 39 4
17 16 42 27 57 10 15 19 32 19 37 0 14 15 23 59 34 20 5 45 11 56 14 11 3 31
7 43 10 13 3 38 11 55 19 43 18 77 18 151 0z m-1559 -30 c-4 -16 -10 -83 -13
-148 -6 -100 -10 -121 -26 -132 -13 -10 -24 -11 -36 -5 -14 7 -18 30 -23 117
-4 59 -13 130 -21 156 l-14 48 70 -3 69 -3 -6 -30z m3828 -110 c-3 -9 -8 -14
-10 -11 -3 3 -2 9 2 15 9 16 15 13 8 -4z m-18 -126 c-20 -129 -20 -128 -34
-179 -16 -55 -19 -70 -20 -93 -1 -17 -4 -16 -30 5 -17 13 -30 28 -30 35 -1 7
17 53 39 102 21 49 49 122 61 161 12 39 23 69 25 67 3 -2 -2 -46 -11 -98z
m-730 -90 c171 -19 340 -80 412 -149 83 -77 83 -223 2 -383 -21 -39 -50 -59
-57 -39 -2 7 -9 12 -16 12 -7 0 -26 12 -42 26 -69 61 -112 94 -121 94 -6 0
-16 7 -23 15 -7 9 -15 14 -17 11 -3 -2 -23 4 -46 14 -73 33 -194 53 -282 47
-77 -5 -199 -38 -264 -72 -33 -16 -41 -35 -16 -35 21 0 19 -8 -15 -47 -51 -58
-39 -68 38 -29 115 58 230 70 365 40 108 -25 193 -69 259 -135 l56 -58 52 20
c29 11 54 18 56 16 8 -8 -103 -135 -140 -159 -67 -43 -92 -49 -220 -49 -133 0
-230 19 -335 67 -110 49 -201 170 -230 304 -15 71 -24 239 -14 253 5 6 15 30
22 52 21 61 57 112 101 144 31 23 58 31 123 40 149 20 171 20 352 0z m-2635
-109 c0 -5 -14 -17 -32 -26 -28 -14 -29 -17 -14 -26 9 -5 24 -7 32 -4 8 3 27
-5 41 -19 l27 -24 -28 -11 c-15 -5 -25 -14 -21 -19 3 -5 -4 -16 -14 -23 -13
-9 -21 -28 -23 -52 -1 -21 -8 -41 -16 -43 -9 -4 -11 -15 -6 -37 4 -21 3 -28
-4 -21 -12 12 -15 36 -13 139 l1 78 28 -6 27 -6 -27 15 c-22 12 -28 23 -28 49
0 19 6 37 13 39 21 9 57 7 57 -3z m1902 -99 c13 -13 22 -47 33 -122 35 -251
127 -422 272 -505 111 -63 232 -93 414 -101 174 -8 206 -2 283 56 l63 48 -26
-61 c-14 -34 -40 -84 -58 -111 -41 -66 -139 -168 -183 -191 -19 -11 -37 -22
-40 -25 -5 -6 -40 -23 -135 -64 -50 -22 -33 -18 -207 -54 -123 -26 -170 -31
-285 -31 -76 0 -154 2 -173 4 -19 3 -60 7 -90 11 -30 3 -73 11 -95 17 -22 5
-47 12 -55 13 -106 22 -230 58 -262 76 -10 5 -25 9 -34 9 -9 0 -28 6 -42 13
-15 8 -76 38 -135 67 -60 30 -119 64 -133 77 -14 13 -29 23 -34 23 -5 0 -13 6
-17 13 -4 6 -34 32 -65 55 -71 54 -134 119 -193 197 -48 64 -95 152 -95 177 0
9 -7 32 -15 52 -8 20 -12 36 -9 36 4 0 2 6 -4 13 -13 16 -16 193 -3 201 5 4
15 -10 21 -29 20 -61 97 -128 194 -168 197 -83 318 -111 447 -105 84 4 102 9
174 43 97 48 195 138 280 257 33 46 62 85 65 88 4 3 9 13 13 22 11 31 94 31
129 -1z m1841 -256 c-3 -9 -8 -14 -10 -11 -3 3 -2 9 2 15 9 16 15 13 8 -4z
m-33 -93 c0 -4 -9 -8 -21 -9 -17 -2 -18 1 -9 12 12 14 30 12 30 -3z m924 -25
c21 -16 14 -57 -10 -57 -8 0 -17 0 -21 -1 -5 0 -14 8 -21 19 -11 17 -10 22 3
36 20 19 26 20 49 3z m-4580 -45 c54 -49 60 -148 13 -233 -14 -25 -28 -57 -30
-70 -7 -41 -18 -63 -44 -85 -23 -20 -28 -20 -54 -7 -40 20 -69 65 -69 106 0
34 10 62 59 169 24 53 27 88 9 88 -8 0 -14 16 -16 39 l-2 38 57 -15 c32 -7 66
-21 77 -30z m309 21 c-5 -14 -3 -16 7 -6 19 18 52 -5 39 -28 -6 -12 -4 -19 6
-23 8 -3 17 -1 20 4 3 4 0 10 -7 12 -9 3 -9 6 -1 11 7 4 19 -5 29 -22 10 -16
26 -32 36 -34 10 -3 18 -10 18 -17 0 -6 -5 -8 -12 -4 -9 5 -8 2 1 -10 11 -13
16 -14 22 -4 8 13 8 13 22 -32 3 -10 10 -3 20 20 14 32 14 36 -1 42 -9 4 -11
7 -4 7 6 1 12 8 12 16 0 23 14 18 27 -10 9 -21 8 -27 -5 -36 -14 -8 -13 -9 5
-4 16 4 23 1 28 -15 3 -11 10 -20 15 -20 14 0 21 -33 8 -42 -11 -6 -10 -8 0
-8 8 0 10 -5 6 -12 -6 -10 -5 -10 7 -1 13 10 22 4 54 -35 22 -26 48 -53 59
-61 19 -14 19 -14 0 -29 -18 -13 -18 -14 5 -7 13 4 26 3 30 -1 3 -5 23 -22 45
-38 29 -22 35 -31 25 -37 -15 -9 -15 -9 18 -13 13 -2 34 -15 47 -29 14 -15 30
-27 36 -27 16 0 70 -42 65 -50 -3 -4 2 -13 10 -20 18 -15 20 -34 3 -24 -7 4
-8 3 -4 -5 4 -6 11 -9 16 -6 4 3 12 -1 18 -8 8 -9 4 -12 -13 -13 -22 -2 -45
29 -45 60 0 8 -7 17 -16 20 -8 3 -12 11 -8 17 4 7 1 10 -6 7 -8 -2 -22 3 -31
11 -45 40 -49 43 -49 27 0 -9 11 -18 25 -22 16 -4 25 -13 25 -26 0 -11 9 -33
21 -49 11 -16 17 -29 13 -29 -3 0 -1 -6 5 -14 9 -10 8 -15 -2 -19 -8 -3 -13
-16 -12 -30 2 -18 -3 -27 -16 -30 -16 -4 -18 -9 -9 -31 5 -14 7 -26 5 -26 -3
0 -10 11 -14 23 -7 19 -16 23 -40 22 -20 -1 -31 3 -31 12 0 7 -4 21 -9 31 -5
9 -17 36 -26 60 -10 23 -22 42 -26 42 -15 0 -20 -20 -10 -38 7 -13 7 -22 -1
-30 -9 -9 -8 -12 5 -12 19 0 37 -57 33 -105 -5 -62 -18 -105 -30 -98 -6 4 -4
-2 4 -12 8 -10 10 -16 3 -12 -6 4 -18 -1 -25 -10 -15 -21 -55 -32 -42 -12 5 8
2 11 -7 7 -84 -31 -90 -32 -112 -19 -18 11 -20 11 -9 0 18 -19 15 -28 -9 -22
-13 4 -18 11 -14 22 3 8 2 12 -2 7 -13 -12 -11 -57 2 -46 8 6 10 -2 8 -28 l-3
-37 10 33 c10 29 30 45 30 23 0 -5 3 -17 7 -27 4 -12 3 -15 -5 -10 -8 5 -10 2
-6 -8 3 -9 11 -13 16 -10 6 4 5 -4 -2 -16 -6 -12 -14 -19 -17 -16 -4 3 -13 0
-21 -7 -9 -6 -13 -7 -9 -1 3 6 0 11 -9 11 -9 0 -12 -7 -9 -17 4 -13 0 -17 -16
-16 -39 2 -29 -18 34 -70 70 -57 127 -126 127 -155 0 -17 -8 -18 -91 -18 l-91
0 -28 -33 c-16 -18 -26 -35 -24 -38 8 -8 59 -6 65 3 4 5 13 7 20 5 9 -4 5 -10
-12 -18 -19 -8 -25 -18 -22 -31 3 -11 -1 -21 -11 -25 -9 -3 -16 -10 -16 -16 0
-5 5 -6 12 -2 7 4 8 3 4 -4 -4 -6 -13 -9 -21 -5 -10 3 -13 1 -10 -9 3 -8 -5
-23 -17 -34 -28 -24 -98 -57 -98 -45 0 4 11 13 25 19 14 6 25 16 25 22 0 8 -4
8 -12 0 -7 -6 -22 -17 -33 -25 -20 -14 -20 -14 -1 -32 10 -10 16 -13 13 -7 -4
6 5 16 18 22 15 7 25 8 25 2 0 -6 -4 -10 -9 -10 -5 0 -11 -9 -14 -21 -5 -18
-8 -19 -29 -8 -21 11 -22 11 -8 -5 12 -16 11 -20 -10 -36 -14 -11 -25 -22 -25
-27 0 -12 -57 -74 -63 -68 -3 2 1 12 9 21 13 16 12 16 -8 4 -12 -8 -19 -18
-16 -24 4 -5 1 -6 -7 -1 -7 4 -16 2 -22 -6 -7 -10 -8 -7 -4 11 3 14 6 33 6 44
0 12 5 16 15 12 36 -15 48 -16 27 -4 -12 8 -20 17 -16 21 4 4 13 2 20 -4 9 -7
12 -6 10 5 -1 9 -5 19 -9 22 -11 12 -8 24 6 20 6 -1 9 -1 5 1 -4 2 -6 10 -4
16 1 7 1 9 -1 5 -2 -4 -10 -6 -16 -4 -7 1 -8 1 -4 -2 4 -2 3 -10 -4 -18 -9
-11 -9 -14 0 -14 7 0 9 -4 6 -10 -12 -20 -27 -10 -21 14 3 14 2 27 -3 30 -5 3
-7 16 -4 29 l5 22 -17 -23 c-12 -17 -25 -23 -41 -19 -13 2 -25 -1 -27 -7 -3
-8 -8 -7 -19 1 -8 7 -18 10 -22 6 -6 -7 -25 -12 -56 -16 -18 -2 -100 43 -100
55 0 19 36 88 45 88 20 0 55 58 55 90 0 34 -13 63 -41 93 -20 21 -17 37 6 37
48 0 142 81 167 145 14 35 14 46 3 79 -8 22 -23 52 -34 68 -12 15 -31 41 -43
58 -14 20 -18 33 -11 42 14 19 9 47 -21 115 -24 53 -26 64 -15 84 7 13 14 26
14 29 0 3 6 14 12 25 6 11 16 40 23 65 6 25 19 54 28 65 16 19 16 19 -2 5 -18
-13 -19 -13 -14 1 4 9 1 22 -5 29 -9 10 -8 12 5 7 15 -5 16 -3 6 18 -6 14 -16
21 -22 18 -8 -5 -8 -3 0 8 9 12 11 40 5 89 -1 12 -3 12 -10 2 -4 -8 -6 -30 -4
-50 l4 -37 -28 28 c-25 25 -26 29 -12 40 11 8 14 18 8 32 -7 18 -9 15 -13 -17
-1 -13 -26 -24 -26 -11 0 4 7 17 15 27 8 10 12 23 9 28 -3 5 0 7 8 6 7 -2 12
3 10 10 -1 8 1 11 6 8 5 -3 14 6 21 20 6 14 15 23 19 20 4 -2 8 4 8 14 0 10
-4 16 -8 14 -4 -3 -8 0 -8 5 0 6 5 11 12 11 6 0 9 3 5 6 -3 4 -14 4 -23 0 -12
-4 -13 -10 -6 -19 8 -9 5 -19 -8 -37 -14 -18 -18 -20 -16 -8 1 10 5 20 8 23 3
3 2 23 -2 45 -6 30 -4 40 6 40 8 0 11 -6 8 -15 -4 -8 -1 -15 5 -15 6 0 11 7
11 15 0 8 5 15 10 15 6 0 10 -5 10 -11 0 -5 4 -7 10 -4 5 3 7 0 4 -8 -3 -8 0
-18 7 -23 8 -4 10 -3 5 4 -12 20 2 13 24 -10 l22 -23 23 29 c21 27 25 28 42
15 17 -13 17 -13 4 4 -12 15 -12 19 4 31 13 10 16 20 11 42 -5 21 -4 25 4 14
6 -10 10 -11 10 -3 0 7 7 10 18 6 15 -5 14 -4 -2 9 -10 8 -16 20 -12 26 11 18
16 14 9 -5z m-1320 -285 c13 -20 -6 -48 -34 -48 -20 0 -36 40 -24 60 10 16 46
8 58 -12z m1072 -101 c39 -68 33 -131 -26 -240 l-20 -37 24 -53 c37 -78 40
-93 25 -133 -11 -32 -11 -37 5 -45 24 -14 88 -116 89 -143 2 -49 -4 -65 -39
-103 -21 -22 -54 -48 -73 -58 -40 -21 -247 -72 -270 -67 -16 3 -42 57 -32 66
3 3 6 20 7 37 3 33 20 50 41 42 16 -6 101 41 125 68 9 10 40 35 70 55 53 36
72 55 64 62 -7 7 -64 -32 -59 -40 3 -4 -2 -8 -10 -8 -9 0 -16 -4 -16 -10 0 -5
-20 -21 -45 -36 -25 -14 -45 -30 -45 -35 0 -5 -6 -9 -13 -9 -7 0 -22 -8 -33
-17 -18 -17 -65 -27 -61 -14 1 3 -7 19 -17 34 -27 40 -32 116 -11 170 17 46
17 46 38 26 11 -10 26 -19 31 -20 6 0 19 -2 29 -4 11 -2 35 13 61 38 47 47
110 137 101 145 -6 6 -4 9 -44 -50 -18 -27 -30 -48 -27 -48 3 0 -11 -16 -31
-35 -42 -41 -56 -43 -99 -13 -32 22 -54 66 -54 109 0 27 68 166 96 197 32 34
59 76 59 92 0 8 10 17 22 20 12 3 36 26 53 53 16 26 36 47 44 47 8 0 27 -20
41 -43z m3906 -21 c-7 -8 -29 -16 -51 -18 -30 -3 -36 -1 -28 9 6 8 20 10 36 6
17 -4 23 -2 18 6 -5 7 1 11 15 11 17 0 19 -3 10 -14z m-2928 -158 c18 -13 39
-24 47 -26 27 -6 30 -18 4 -17 -14 1 -29 7 -33 14 -5 7 -10 11 -12 9 -3 -1
-15 7 -29 20 -13 12 -20 22 -16 22 4 0 22 -10 39 -22z m1978 -65 c5 -26 3 -30
-10 -26 -14 4 -14 3 -1 -9 22 -19 23 -38 3 -39 -15 0 -15 -2 2 -9 11 -5 16 -9
11 -9 -5 -1 -3 -8 4 -16 12 -15 6 -35 -12 -35 -7 0 -6 6 2 15 9 10 9 15 1 15
-6 0 -11 -3 -12 -7 0 -5 -2 -16 -4 -26 -2 -13 1 -17 11 -13 9 3 12 1 9 -4 -6
-10 7 -14 34 -11 7 2 10 -2 6 -8 -3 -6 -1 -11 5 -11 6 0 8 -5 4 -12 -5 -7 -3
-8 5 -4 7 5 10 15 7 23 -4 9 -2 11 6 7 6 -4 23 -7 39 -6 28 1 29 -2 12 -45 -3
-10 -7 -29 -8 -43 0 -15 -8 -26 -17 -28 -19 -4 -22 33 -5 56 6 7 6 12 1 10 -5
-2 -10 2 -11 7 -2 6 4 10 11 10 8 0 18 4 23 9 4 5 3 6 -4 2 -8 -4 -13 -2 -13
5 0 8 -8 5 -20 -6 -14 -12 -17 -22 -10 -30 6 -7 6 -15 -2 -23 -9 -9 -9 -12 2
-12 11 0 11 -3 2 -12 -13 -13 -16 -29 -4 -27 18 3 32 -2 32 -12 0 -6 -7 -9
-15 -6 -8 4 -17 1 -21 -5 -4 -6 -3 -8 4 -4 6 3 14 1 18 -6 4 -7 3 -10 -1 -5
-5 4 -19 0 -32 -8 -22 -15 -24 -14 -33 7 -8 19 -9 17 -4 -11 4 -23 3 -31 -5
-27 -6 4 -11 2 -11 -3 0 -9 28 -9 50 -1 3 2 9 2 13 1 4 -1 17 3 27 9 15 8 20
8 20 -2 0 -7 5 -5 13 5 8 12 32 19 76 22 60 5 63 5 50 -12 -12 -15 -10 -15 9
1 12 11 22 15 22 10 0 -5 17 -8 39 -8 l38 2 -22 -47 c-13 -26 -37 -70 -54 -99
-35 -60 -39 -82 -13 -82 41 0 179 -87 280 -176 l35 -31 -79 -13 c-43 -8 -90
-14 -104 -13 -14 0 -28 -4 -31 -9 -4 -6 -18 -11 -32 -11 -14 -1 -23 -5 -20 -9
2 -5 -5 -8 -15 -8 -11 0 -22 7 -26 15 -3 8 -11 15 -18 15 -10 0 -10 -2 0 -9
10 -6 8 -10 -10 -14 -15 -4 -35 2 -61 19 -22 14 -41 24 -43 21 -2 -2 16 -26
42 -53 61 -64 67 -72 96 -119 30 -49 45 -86 27 -68 -6 6 -17 9 -24 7 -7 -3
-16 -1 -19 5 -4 6 -13 8 -21 5 -12 -5 -12 -9 2 -30 18 -28 12 -31 -13 -7 -16
16 -16 16 -10 -4 6 -18 4 -20 -14 -16 -17 4 -18 8 -8 14 11 7 11 9 0 9 -7 0
-20 -7 -28 -15 -9 -8 -11 -15 -5 -15 6 0 8 -6 5 -14 -3 -8 0 -25 7 -38 7 -13
12 -27 11 -32 -2 -4 2 -14 9 -22 17 -21 -8 -26 -98 -20 -77 5 -107 10 -143 21
-15 5 -21 0 -25 -22 -4 -15 -10 -39 -15 -53 -4 -14 -11 -34 -15 -45 -3 -11 -6
-21 -6 -22 0 -2 -6 -17 -13 -35 -7 -18 -11 -39 -8 -47 3 -9 0 -11 -9 -6 -11 6
-12 5 -1 -6 17 -19 15 -34 -3 -19 -9 7 -25 13 -38 14 -13 1 -21 7 -19 15 2 9
-3 11 -13 7 -10 -3 -14 -2 -10 5 4 6 13 8 20 5 7 -2 21 2 32 10 10 9 12 13 6
9 -7 -3 -13 -2 -13 4 0 13 -37 6 -57 -11 -9 -7 -22 -13 -31 -13 -25 0 -39 -32
-24 -56 8 -12 9 -18 3 -14 -6 3 -11 1 -11 -6 0 -8 -3 -9 -13 0 -8 6 -17 8 -21
4 -3 -4 6 -17 21 -30 16 -12 23 -22 16 -23 -15 0 -66 54 -69 73 -3 24 -16 62
-23 67 -4 3 -14 17 -24 32 -14 23 -14 26 -2 22 8 -4 15 -11 15 -17 0 -6 3 -7
6 -4 4 4 1 14 -6 22 -12 14 -10 16 16 10 24 -5 26 -4 11 5 -9 6 -16 14 -13 18
2 4 -11 8 -29 9 -29 3 -34 -1 -44 -29 -6 -18 -21 -42 -32 -54 -11 -12 -19 -28
-17 -35 2 -8 -3 -13 -10 -11 -8 1 -11 -2 -7 -8 3 -5 -2 -10 -12 -10 -15 0 -15
-2 -3 -9 8 -6 18 -7 23 -4 5 3 3 -4 -5 -16 -7 -12 -16 -17 -21 -12 -15 15 -49
-23 -41 -44 6 -15 3 -17 -20 -11 -24 6 -26 5 -14 -8 7 -7 16 -12 20 -9 4 2 5
-3 2 -12 -5 -13 -10 -11 -31 9 -14 14 -22 30 -18 36 4 6 3 9 -2 8 -4 -2 -9 2
-11 7 -7 21 -36 45 -54 45 -12 0 -16 -4 -12 -11 4 -8 -1 -9 -15 -4 -16 5 -22
3 -20 -7 3 -28 -1 -48 -12 -48 -6 0 -9 7 -5 15 3 8 0 15 -5 15 -6 0 -9 9 -6
20 3 13 1 18 -6 13 -6 -4 -8 0 -4 10 3 10 3 17 -2 17 -11 0 -21 49 -14 67 4 9
10 10 26 2 21 -10 21 -10 3 5 -14 12 -23 13 -33 5 -18 -16 -16 -4 3 15 14 15
13 16 -6 16 -16 0 -20 4 -16 15 3 8 1 15 -4 15 -6 0 -6 9 -1 23 6 16 3 29 -10
49 -11 14 -16 33 -13 41 3 8 1 18 -5 22 -6 3 -11 16 -11 28 0 12 4 18 8 12 11
-15 52 -14 52 2 0 8 -5 11 -11 8 -17 -11 -59 4 -59 21 0 9 5 12 11 8 8 -5 9
-2 1 12 -8 14 -5 22 13 36 20 15 23 29 16 71 0 5 -6 5 -13 1 -7 -4 -8 -3 -4 5
4 6 11 9 16 6 4 -3 10 5 13 16 4 16 -8 34 -49 74 -30 30 -63 56 -74 60 -11 3
-20 9 -19 13 1 12 143 76 161 74 10 -2 27 3 39 12 14 9 36 13 64 10 48 -5 64
8 43 33 -11 14 -11 16 1 8 9 -5 12 -4 7 3 -4 6 -13 9 -21 5 -9 -3 -23 1 -33 8
-15 12 -16 12 -4 -2 11 -14 9 -17 -13 -21 -14 -3 -28 -1 -32 5 -4 6 -1 7 7 2
8 -5 11 -3 8 6 -3 8 2 19 10 25 16 12 7 39 -9 29 -5 -4 -9 1 -9 9 0 9 -5 16
-11 16 -5 0 -8 4 -5 8 3 5 -11 9 -30 9 -23 0 -31 -3 -22 -9 8 -6 4 -7 -12 -3
-29 8 -50 25 -31 25 13 0 41 24 41 35 0 3 -5 3 -11 0 -6 -4 -5 2 2 13 11 18
10 24 -6 43 -11 12 -15 19 -8 16 6 -4 14 -3 17 2 3 4 -7 8 -22 8 -52 0 -68 3
-55 11 9 6 7 11 -8 20 -16 11 -20 10 -17 0 2 -8 -1 -13 -7 -13 -5 0 -9 12 -7
28 1 15 -2 27 -8 27 -5 0 -10 -8 -10 -19 0 -25 -27 -48 -41 -34 -14 14 -24 87
-11 79 5 -3 16 2 23 11 8 10 9 14 2 10 -6 -4 -14 -3 -18 3 -3 5 1 10 10 10 9
0 14 4 11 9 -3 4 6 19 19 31 14 13 25 30 25 37 0 8 7 16 15 19 10 4 13 13 10
25 -7 21 6 26 95 34 83 8 94 10 107 18 6 4 18 4 27 1 10 -4 16 -1 16 7 0 10 3
10 12 1 9 -9 14 -8 22 4 11 15 51 10 41 -5 -2 -4 6 -7 18 -7 12 1 21 -4 20
-11 -2 -7 4 -10 13 -6 13 5 13 7 2 14 -10 7 -22 49 -13 49 1 0 20 7 41 16 l39
16 -22 -24 c-38 -40 -26 -41 13 -1 20 21 34 30 31 20 -4 -11 -3 -16 3 -12 6 3
10 14 11 23 0 13 2 13 6 3 4 -10 9 -8 20 10 l14 24 -7 -25 c-4 -14 -12 -28
-18 -32 -8 -6 -8 -8 1 -8 6 0 18 8 25 18 14 19 39 22 51 7 5 -6 7 -4 4 5 -2 8
-9 16 -15 16 -7 1 -16 2 -22 3 -5 0 -10 6 -10 12 0 6 7 8 16 5 8 -3 12 -2 9 4
-3 6 -4 10 -1 10 2 0 11 3 20 6 11 4 16 1 16 -11 0 -10 -5 -14 -12 -9 -7 4 -6
-1 3 -12 9 -10 15 -28 13 -39 -3 -19 -2 -19 11 -2 13 18 14 18 24 0 9 -15 10
-14 5 10 -5 23 -4 26 12 20 12 -4 15 -3 10 6 -4 6 -4 10 1 9 4 -1 18 3 30 10
14 8 24 9 28 2 9 -14 25 -12 23 3 -2 6 5 11 15 9 9 -2 17 2 17 9 0 6 7 9 15 6
8 -4 17 -2 20 4 4 5 30 8 58 6 49 -3 52 -5 58 -34z m-1718 -216 c74 -74 85
-83 158 -124 58 -32 141 -62 196 -69 30 -4 89 13 175 50 l37 16 -3 -28 c-2
-15 -5 -27 -6 -27 -1 0 -4 -13 -6 -30 -7 -49 -10 -51 -66 -68 -123 -39 -321
-45 -383 -13 -17 9 -33 16 -37 16 -8 0 -131 74 -155 93 -8 7 -35 30 -60 52
l-44 40 24 95 c14 52 28 119 32 149 l7 54 35 -72 c23 -47 56 -93 96 -134z
m787 53 c0 -15 -65 -81 -73 -74 -3 3 -3 13 0 22 4 10 2 13 -5 8 -9 -5 -32 21
-32 37 0 6 53 0 73 -8 13 -6 16 -3 11 9 -4 11 -1 16 10 16 9 0 16 -5 16 -10z
m1717 4 c-3 -3 -12 -4 -19 -1 -8 3 -5 6 6 6 11 1 17 -2 13 -5z m-47 -43 c14
-28 13 -31 -15 -31 -20 0 -25 5 -25 25 0 30 25 34 40 6z m-2650 -6 c0 -2 -5
-15 -12 -29 -10 -24 -12 -24 -24 -8 -25 35 -26 1 -1 -50 21 -43 43 -65 114
-118 49 -36 121 -81 160 -100 40 -19 72 -40 72 -46 2 -28 -102 -165 -173 -229
-125 -113 -262 -170 -319 -132 -41 27 -117 110 -117 127 0 5 -5 10 -10 10 -6
0 -9 3 -8 8 1 4 -5 21 -14 37 -8 17 -23 64 -32 107 l-17 76 83 84 c94 94 196
208 218 244 11 17 24 24 47 24 18 0 33 -2 33 -5z m-330 -66 c0 -6 -4 -7 -10
-4 -5 3 -10 11 -10 16 0 6 5 7 10 4 6 -3 10 -11 10 -16z m3145 -66 c-5 -14 -3
-14 11 -2 15 12 17 12 12 -1 -2 -8 -12 -16 -20 -18 -11 -2 -16 4 -14 22 0 13
5 22 9 19 5 -3 6 -12 2 -20z m162 1 c-3 -3 -12 -4 -19 -1 -8 3 -5 6 6 6 11 1
17 -2 13 -5z m-2130 -133 c13 -67 50 -200 62 -221 5 -9 12 -30 15 -47 6 -27 3
-34 -18 -48 -35 -23 -33 -31 9 -45 l36 -12 -21 -33 c-11 -18 -20 -41 -20 -52
0 -35 -66 -91 -166 -143 -65 -33 -88 -38 -142 -32 -17 3 -132 114 -132 130 0
6 -4 12 -8 12 -7 0 -56 92 -58 109 0 3 -12 43 -27 87 -14 45 -27 110 -29 145
l-3 63 100 3 c114 4 231 27 290 55 43 22 85 56 85 70 0 13 -28 9 -33 -4 -3 -7
-6 2 -6 20 l-1 33 28 -17 c23 -13 31 -27 39 -73z m1938 59 c-3 -5 -16 -10 -28
-9 -21 0 -21 1 -2 9 28 12 37 12 30 0z m-42 -27 c-7 -2 -21 -2 -30 0 -10 3 -4
5 12 5 17 0 24 -2 18 -5z m-79 -12 c3 -4 -6 -6 -19 -3 -14 2 -25 6 -25 8 0 8
39 4 44 -5z m43 -7 c-3 -3 -12 -4 -19 -1 -8 3 -5 6 6 6 11 1 17 -2 13 -5z m67
-29 c-4 -8 -10 -12 -15 -9 -14 8 -10 24 6 24 9 0 12 -6 9 -15z m-1624 -114 c0
-16 -29 -7 -33 10 -4 16 -2 17 14 8 10 -5 19 -13 19 -18z m-2278 -56 c6 -14
14 -25 18 -25 12 0 30 -50 23 -67 -17 -49 -110 -100 -135 -75 -5 5 -10 47 -11
92 -2 74 0 83 16 86 11 1 21 5 25 8 15 16 53 4 64 -19z m2365 -41 c-3 -3 -12
-4 -19 -1 -8 3 -5 6 6 6 11 1 17 -2 13 -5z m-1831 -39 c-23 -17 -36 -19 -36
-6 0 5 8 12 18 14 32 9 37 6 18 -8z m3604 -45 c0 -5 -4 -10 -10 -10 -5 0 -10
5 -10 10 0 6 5 10 10 10 6 0 10 -4 10 -10z m472 -142 c-6 -6 -16 -7 -22 -3 -9
6 -9 9 1 16 17 10 34 0 21 -13z m-422 -8 c0 -5 -2 -10 -4 -10 -3 0 -8 5 -11
10 -3 6 -1 10 4 10 6 0 11 -4 11 -10z m380 -40 c-18 -13 -27 -15 -32 -7 -14
21 -8 27 25 27 l32 0 -25 -20z m-2394 -35 c1 -8 -2 -15 -6 -15 -5 0 -8 9 -7
20 1 21 10 18 13 -5z m19 -25 c-3 -5 -14 -10 -23 -10 -15 0 -15 2 -2 10 20 13
33 13 25 0z m1127 -34 c4 3 9 1 12 -4 3 -6 -1 -9 -10 -8 -9 1 -21 11 -26 22
-9 18 -8 18 5 2 8 -10 16 -15 19 -12z m-654 -392 c-3 -2 -15 14 -29 35 -13 22
-27 37 -31 34 -4 -2 -5 3 -1 12 4 13 13 6 35 -30 16 -26 28 -49 26 -51z m-173
-54 c-3 -5 -12 -10 -18 -10 -7 0 -6 4 3 10 19 12 23 12 15 0z m2155 -296 c0
-2 -7 -4 -15 -4 -8 0 -15 4 -15 10 0 5 7 7 15 4 8 -4 15 -8 15 -10z m-1015
-68 c18 -13 16 -15 -27 -21 -56 -8 -80 1 -53 22 24 17 56 17 80 -1z"/>
<path d="M5029 5585 c-33 -18 -6 -28 41 -15 22 6 40 14 40 19 0 12 -56 9 -81
-4z"/>
<path d="M4195 5449 c-4 -6 -5 -12 -2 -15 2 -3 7 2 10 11 7 17 1 20 -8 4z"/>
<path d="M5470 4685 c0 -6 4 -16 9 -24 7 -10 4 -19 -7 -28 -14 -10 -14 -12 -2
-8 13 5 19 -11 33 -77 22 -104 22 -118 2 -137 -9 -9 -15 -11 -14 -6 3 20 -1
48 -7 42 -4 -3 -4 -21 0 -40 l6 -33 54 52 c38 37 72 59 116 75 l63 23 -35 12
c-71 24 -125 58 -170 107 -27 28 -48 47 -48 42z"/>
<path d="M5345 4550 c3 -5 10 -10 16 -10 5 0 9 5 9 10 0 6 -7 10 -16 10 -8 0
-12 -4 -9 -10z"/>
<path d="M5475 4539 c-4 -6 -5 -12 -2 -15 2 -3 7 2 10 11 7 17 1 20 -8 4z"/>
<path d="M5481 4474 c0 -11 3 -14 6 -6 3 7 2 16 -1 19 -3 4 -6 -2 -5 -13z"/>
<path d="M5260 4426 c0 -2 7 -7 16 -10 8 -3 12 -2 9 4 -6 10 -25 14 -25 6z"/>
<path d="M5160 3534 c0 -6 7 -19 15 -30 8 -10 14 -14 14 -9 0 6 -6 19 -14 29
-8 11 -15 15 -15 10z"/>
<path d="M1300 3700 c0 -6 7 -10 15 -10 8 0 15 2 15 4 0 2 -7 6 -15 10 -8 3
-15 1 -15 -4z"/>
<path d="M2514 3333 c2 -5 34 -24 71 -43 37 -19 93 -58 123 -87 31 -29 58 -51
60 -48 8 8 -20 45 -57 74 -77 61 -217 134 -197 104z"/>
<path d="M3610 3063 c-50 -6 -168 -42 -175 -53 -9 -14 7 -12 47 4 38 16 132
30 237 34 19 1 32 5 28 8 -8 8 -92 12 -137 7z"/>
<path d="M2132 2778 c-14 -14 -17 -52 -3 -44 7 5 22 56 17 56 -1 0 -7 -5 -14
-12z"/>
<path d="M2210 2754 c0 -8 5 -12 10 -9 6 3 10 10 10 16 0 5 -4 9 -10 9 -5 0
-10 -7 -10 -16z"/>
<path d="M2297 2719 c-3 -13 -1 -19 6 -16 15 5 22 37 9 37 -5 0 -12 -9 -15
-21z"/>
<path d="M2621 2540 c14 -38 60 -77 107 -89 20 -5 77 -10 125 -11 90 -1 156
-19 255 -69 58 -30 127 -28 175 4 20 14 37 30 37 35 0 14 -3 13 -51 -15 -44
-25 -97 -32 -115 -16 -5 5 -49 25 -99 44 -71 28 -110 37 -185 42 -154 10 -161
12 -197 47 -18 17 -33 38 -33 45 0 7 -7 13 -14 13 -12 0 -13 -6 -5 -30z"/>
<path d="M3660 2419 c0 -5 5 -7 10 -4 6 3 10 8 10 11 0 2 -4 4 -10 4 -5 0 -10
-5 -10 -11z"/>
<path d="M3737 2390 c-3 -11 -2 -22 3 -25 4 -3 10 6 12 20 6 30 -7 34 -15 5z"/>
<path d="M1710 2696 c0 -8 5 -18 10 -21 6 -3 10 1 10 9 0 8 -4 18 -10 21 -5 3
-10 -1 -10 -9z"/>
<path d="M1480 2600 c0 -5 5 -10 11 -10 5 0 7 5 4 10 -3 6 -8 10 -11 10 -2 0
-4 -4 -4 -10z"/>
<path d="M1897 2589 c7 -7 15 -10 18 -7 3 3 -2 9 -12 12 -14 6 -15 5 -6 -5z"/>
<path d="M1461 2583 c-1 -14 5 -18 42 -27 19 -4 26 -3 22 4 -3 5 -17 10 -30
10 -13 0 -26 6 -28 13 -4 9 -6 9 -6 0z"/>
<path d="M1426 2545 c-3 -8 -1 -15 4 -15 6 0 10 7 10 15 0 8 -2 15 -4 15 -2 0
-6 -7 -10 -15z"/>
<path d="M1948 2505 c2 -14 6 -25 8 -25 2 0 4 11 4 25 0 14 -4 25 -9 25 -4 0
-6 -11 -3 -25z"/>
<path d="M1420 2511 c0 -7 -5 -9 -12 -5 -7 5 -8 3 -3 -5 5 -9 10 -10 18 -2 6
6 8 14 4 18 -4 3 -7 1 -7 -6z"/>
<path d="M2004 2403 c2 -9 12 -17 24 -18 28 -2 27 -1 -2 18 -22 15 -24 15 -22
0z"/>
<path d="M2073 2384 c9 -11 15 -23 12 -26 -3 -3 3 -12 14 -22 16 -15 19 -15
31 -1 14 17 4 35 -23 39 -8 1 -23 8 -33 16 -18 14 -18 14 -1 -6z m40 -35 c4
-16 3 -18 -9 -8 -7 6 -11 15 -8 20 8 13 11 11 17 -12z"/>
<path d="M1475 2369 c-11 -16 -1 -19 13 -3 7 8 8 14 3 14 -5 0 -13 -5 -16 -11z"/>
<path d="M1520 2373 c8 -3 18 -11 22 -17 4 -6 10 -7 15 -3 9 10 -16 27 -37 26
-13 -1 -13 -1 0 -6z"/>
<path d="M1569 2339 c-9 -17 -13 -19 -20 -8 -5 8 -9 10 -9 4 0 -30 17 -33 34
-5 9 17 15 30 12 30 -3 0 -10 -10 -17 -21z"/>
<path d="M1570 2295 c-7 -9 -11 -17 -9 -20 3 -2 10 5 17 15 14 24 10 26 -8 5z"/>
<path d="M1586 2261 c-4 -7 -5 -15 -2 -18 9 -9 19 4 14 18 -4 11 -6 11 -12 0z"/>
<path d="M2114 2219 c-4 -6 1 -9 12 -8 11 2 24 0 30 -4 7 -4 17 -1 23 6 9 11
4 14 -24 15 -19 1 -37 -3 -41 -9z"/>
<path d="M1595 2146 c0 -41 4 -78 8 -82 4 -4 7 29 7 74 0 45 -3 82 -8 82 -4 0
-7 -34 -7 -74z"/>
<path d="M2145 2170 c-3 -5 -1 -10 4 -10 6 0 11 5 11 10 0 6 -2 10 -4 10 -3 0
-8 -4 -11 -10z"/>
<path d="M2250 2130 c-9 -6 -10 -10 -3 -10 6 0 15 5 18 10 8 12 4 12 -15 0z"/>
<path d="M2243 2095 c0 -8 4 -12 9 -9 4 3 8 9 8 15 0 5 -4 9 -8 9 -5 0 -9 -7
-9 -15z"/>
<path d="M1630 1964 c0 -47 -3 -63 -12 -58 -8 5 -9 2 -5 -10 4 -10 7 -29 7
-43 0 -24 2 -25 18 -11 32 28 160 78 198 78 8 0 5 -34 -11 -107 -13 -60 -22
-110 -19 -112 2 -3 17 5 32 16 24 18 27 26 25 74 -3 62 5 111 16 105 4 -3 8 1
8 9 0 8 -5 15 -11 15 -5 0 -2 6 8 13 17 13 18 14 2 20 -10 4 -15 3 -11 -3 3
-6 4 -10 0 -10 -3 0 -10 10 -15 23 -7 17 -9 18 -9 5 -1 -11 -9 -19 -21 -19
-11 -1 -26 -2 -32 -3 -7 -1 -12 4 -11 11 2 8 -4 10 -14 6 -12 -5 -14 -3 -8 8
8 12 6 12 -8 0 -14 -11 -22 -11 -47 -1 -16 7 -30 18 -30 25 0 6 -11 17 -25 23
l-25 12 0 -66z m55 6 c8 0 19 -8 24 -19 11 -20 -2 -44 -30 -54 -12 -4 -14 1
-11 24 2 16 9 29 16 29 6 0 3 5 -6 11 -10 5 -18 15 -17 22 0 9 2 9 6 0 2 -7
11 -13 18 -13z m85 -29 c0 -5 -11 -11 -25 -13 -26 -5 -30 13 -5 23 17 7 30 2
30 -10z m81 -204 c-8 -8 -11 -7 -11 4 0 9 3 19 7 23 4 4 9 2 11 -4 3 -7 -1
-17 -7 -23z"/>
<path d="M1602 1986 c1 -20 5 -39 9 -42 10 -6 6 63 -4 72 -4 4 -6 -10 -5 -30z"/>
<path d="M2084 1985 c-4 -14 -4 -29 0 -32 3 -4 6 4 6 16 0 12 4 19 10 16 6 -3
7 1 4 9 -8 22 -13 20 -20 -9z"/>
<path d="M1820 1970 c0 -5 5 -10 11 -10 5 0 7 5 4 10 -3 6 -8 10 -11 10 -2 0
-4 -4 -4 -10z"/>
<path d="M1900 1969 c0 -5 5 -7 10 -4 6 3 10 8 10 11 0 2 -4 4 -10 4 -5 0 -10
-5 -10 -11z"/>
<path d="M1911 1899 c-1 -9 5 -19 12 -22 8 -3 14 1 14 9 0 7 -4 11 -8 8 -4 -2
-10 2 -12 8 -4 8 -6 7 -6 -3z"/>
<path d="M1962 1876 c-12 -14 -13 -17 -2 -11 8 5 21 10 29 12 25 3 36 22 12
20 -12 -1 -30 -10 -39 -21z"/>
<path d="M1695 1290 c-3 -6 1 -7 9 -4 18 7 21 14 7 14 -6 0 -13 -4 -16 -10z"/>
<path d="M1740 1259 c18 -34 21 -36 17 -9 -2 13 -9 26 -16 28 -10 3 -10 0 -1
-19z"/>
<path d="M1666 1254 c-9 -8 -16 -23 -16 -32 1 -15 2 -16 13 -1 7 9 15 16 19
15 3 -1 10 3 15 8 5 6 2 6 -6 1 -11 -6 -13 -4 -8 8 8 21 3 21 -17 1z"/>
<path d="M1613 1242 l-23 -17 23 -1 c16 -1 23 4 23 17 0 11 0 19 -1 19 0 0
-10 -8 -22 -18z"/>
<path d="M1350 1171 c0 -5 9 -7 20 -4 11 3 20 7 20 9 0 2 -9 4 -20 4 -11 0
-20 -4 -20 -9z"/>
<path d="M1634 1136 c-10 -8 -17 -17 -14 -19 3 -3 16 3 30 13 29 22 14 27 -16
6z"/>
<path d="M1620 1090 c0 -5 5 -10 11 -10 5 0 7 5 4 10 -3 6 -8 10 -11 10 -2 0
-4 -4 -4 -10z"/>
<path d="M4097 2091 c-3 -12 -1 -21 3 -21 15 0 23 21 12 32 -6 6 -11 2 -15
-11z"/>
<path d="M4136 2095 c4 -8 7 -15 9 -15 2 0 5 7 9 15 3 9 0 15 -9 15 -9 0 -12
-6 -9 -15z"/>
<path d="M3955 2070 c-3 -6 1 -7 9 -4 18 7 21 14 7 14 -6 0 -13 -4 -16 -10z"/>
<path d="M3630 1990 c0 -14 39 -32 56 -26 22 8 17 29 -6 23 -11 -3 -23 -1 -26
4 -7 12 -24 12 -24 -1z"/>
<path d="M3436 1948 c4 -6 -1 -17 -11 -25 -25 -17 -15 -17 23 3 39 19 41 34 6
34 -16 0 -23 -4 -18 -12z"/>
<path d="M4320 1948 c0 -9 5 -20 10 -23 13 -8 13 5 0 25 -8 13 -10 13 -10 -2z"/>
<path d="M3387 1843 c-11 -10 -8 -43 3 -43 6 0 10 11 10 25 0 26 -2 29 -13 18z"/>
<path d="M4169 1797 c7 -7 7 -15 -1 -24 -8 -11 -7 -12 6 -7 20 8 21 41 1 41
-11 0 -12 -4 -6 -10z"/>
<path d="M4375 1800 c-3 -5 -1 -10 4 -10 6 0 11 5 11 10 0 6 -2 10 -4 10 -3 0
-8 -4 -11 -10z"/>
<path d="M4475 1750 c-3 -6 1 -7 9 -4 18 7 21 14 7 14 -6 0 -13 -4 -16 -10z"/>
<path d="M3457 1729 c7 -9 10 -19 6 -22 -3 -4 -1 -7 5 -7 17 0 15 16 -5 31
-16 12 -17 12 -6 -2z"/>
<path d="M4495 1719 c-4 -6 -17 -14 -29 -19 -19 -8 -19 -9 6 -7 15 1 25 3 23
6 -3 2 0 10 6 18 6 7 9 13 6 13 -3 0 -9 -5 -12 -11z"/>
<path d="M3705 1700 c-3 -5 1 -10 10 -10 9 0 13 5 10 10 -3 6 -8 10 -10 10 -2
0 -7 -4 -10 -10z"/>
<path d="M3654 1667 c-3 -9 -3 -21 1 -26 3 -6 -2 -22 -10 -35 -16 -24 -16 -25
9 -32 14 -3 26 -13 26 -21 0 -10 -6 -12 -22 -7 l-23 6 23 -24 c12 -13 19 -29
15 -33 -5 -5 0 -3 10 5 18 13 19 12 15 -19 -1 -18 0 -33 5 -32 4 1 11 1 16 1
19 0 16 46 -6 113 l-22 67 30 -2 c17 -1 33 -6 35 -10 3 -4 14 -13 26 -19 16
-9 19 -8 12 3 -4 7 11 -2 34 -20 23 -19 42 -30 42 -26 0 4 11 -3 24 -15 21
-20 25 -20 39 -7 8 8 18 12 22 8 4 -4 6 2 4 12 -2 11 -10 21 -18 24 -8 3 -11
0 -7 -7 5 -8 0 -8 -18 1 -14 6 -26 15 -26 20 0 4 -8 8 -17 9 -10 0 -13 3 -6 5
17 7 4 34 -13 27 -8 -3 -11 -10 -8 -15 4 -6 -5 -2 -20 7 -14 10 -26 22 -26 27
0 5 -10 8 -22 7 -13 -2 -28 -1 -33 3 -6 3 -27 9 -47 13 -30 6 -39 4 -44 -8z
m7 -80 c-10 -9 -11 -8 -5 6 3 10 9 15 12 12 3 -3 0 -11 -7 -18z"/>
<path d="M4025 1670 c-7 -11 -8 -11 22 -14 18 -2 20 0 12 11 -14 16 -26 17
-34 3z"/>
<path d="M3548 1663 c7 -3 16 -2 19 1 4 3 -2 6 -13 5 -11 0 -14 -3 -6 -6z"/>
<path d="M4090 1665 c-1 -5 -2 -14 -1 -19 1 -4 -9 -6 -23 -2 -14 3 -28 1 -31
-5 -4 -6 -14 -8 -22 -5 -8 3 -11 1 -8 -4 3 -6 2 -10 -4 -10 -21 0 -38 -29 -34
-57 4 -26 31 -43 34 -21 1 4 3 13 4 18 1 6 3 17 4 26 0 8 6 12 11 9 6 -3 10
-1 10 5 0 6 4 9 9 6 13 -9 64 40 58 55 -3 8 -6 10 -7 4z"/>
<path d="M3590 1646 c0 -8 5 -18 10 -21 6 -3 10 3 10 14 0 12 -4 21 -10 21 -5
0 -10 -6 -10 -14z"/>
<path d="M3875 1650 c3 -5 8 -10 11 -10 2 0 4 5 4 10 0 6 -5 10 -11 10 -5 0
-7 -4 -4 -10z"/>
<path d="M3620 1616 c-15 -39 -12 -46 6 -13 9 16 13 31 10 34 -3 3 -10 -6 -16
-21z"/>
<path d="M3897 1623 c-11 -11 -8 -21 9 -27 14 -5 15 -4 5 8 -9 11 -9 15 1 19
7 3 8 6 2 6 -6 1 -14 -2 -17 -6z"/>
<path d="M3941 1604 c0 -11 3 -14 6 -6 3 7 2 16 -1 19 -3 4 -6 -2 -5 -13z"/>
<path d="M4015 1571 c-3 -5 -2 -12 3 -15 5 -3 9 1 9 9 0 17 -3 19 -12 6z"/>
<path d="M4482 1098 c3 -7 21 -14 42 -15 32 -2 35 0 22 12 -18 19 -69 20 -64
3z"/>
<path d="M4456 1066 c21 -15 30 -14 19 3 -3 6 -14 11 -23 11 -13 0 -13 -2 4
-14z"/>
<path d="M3490 1055 c6 -8 9 -19 6 -24 -4 -5 -2 -12 3 -15 16 -10 21 23 5 39
-20 19 -30 20 -14 0z"/>
<path d="M3505 941 c3 -2 0 -10 -7 -18 -9 -11 -7 -15 10 -20 12 -3 22 -10 22
-17 0 -6 5 -4 10 5 14 23 1 58 -21 56 -10 -1 -16 -3 -14 -6z m31 -38 c-3 -4
-6 -1 -6 5 0 7 -7 9 -17 5 -15 -6 -16 -5 -3 9 13 14 16 14 23 1 5 -8 6 -17 3
-20z"/>
<path d="M3990 810 c8 -5 20 -10 25 -10 6 0 3 5 -5 10 -8 5 -19 10 -25 10 -5
0 -3 -5 5 -10z"/>
<path d="M3570 786 c0 -7 7 -19 15 -26 11 -9 12 -16 5 -25 -5 -6 -6 -16 -2
-20 4 -5 -1 -5 -10 -2 -10 3 -20 2 -23 -4 -4 -5 -3 -9 2 -8 4 1 14 1 22 0 11
-1 11 -4 0 -18 -12 -14 -10 -14 14 1 19 13 27 15 27 5 0 -19 13 -2 17 22 3 19
2 19 -13 5 -8 -9 -19 -16 -24 -16 -12 0 -5 33 8 38 7 2 11 16 11 30 -2 24 -2
25 -6 4 -2 -12 -9 -20 -14 -16 -5 3 -6 10 -3 16 5 7 2 8 -6 3 -10 -6 -12 -4
-7 8 3 10 2 17 -3 17 -6 0 -10 -6 -10 -14z"/>
<path d="M4097 759 c-14 -13 -15 -19 -6 -25 8 -4 10 -3 5 4 -4 7 -3 12 1 12 5
0 17 6 27 13 13 10 14 14 5 14 -8 0 -22 -8 -32 -18z"/>
<path d="M4160 700 c-12 -7 -10 -9 8 -7 12 0 22 5 22 9 0 11 -12 10 -30 -2z"/>
<path d="M3990 680 c0 -5 5 -10 10 -10 6 0 10 5 10 10 0 6 -4 10 -10 10 -5 0
-10 -4 -10 -10z"/>
<path d="M3340 1943 c0 -5 4 -14 9 -21 6 -10 10 -9 14 7 3 14 0 21 -9 21 -8 0
-14 -3 -14 -7z"/>
<path d="M1350 5916 c0 -9 -6 -13 -14 -10 -11 4 -14 -2 -14 -26 1 -17 5 -33
10 -36 4 -3 8 -9 8 -14 0 -5 -11 1 -25 14 -14 13 -25 28 -25 33 0 5 -7 10 -15
10 -18 0 -20 -13 -4 -23 8 -4 7 -9 -2 -15 -10 -6 -7 -10 12 -17 42 -16 50 -34
28 -61 -25 -30 -37 -19 -22 19 6 17 7 30 2 30 -5 0 -9 -6 -9 -12 0 -7 -7 -4
-16 7 -14 19 -15 16 -12 -31 2 -29 6 -50 11 -47 4 2 7 -5 7 -15 0 -23 -26 -37
-34 -19 -4 7 -4 1 -2 -13 4 -26 20 -74 43 -128 8 -17 15 -44 16 -60 1 -15 9
-33 17 -40 8 -8 9 -11 3 -7 -15 7 -17 -11 -3 -20 17 -10 66 51 79 97 13 51 19
237 8 291 -4 23 -3 46 3 58 9 16 7 19 -15 19 -15 0 -24 4 -20 9 3 5 1 12 -5
16 -5 3 -10 -1 -10 -9z"/>
<path d="M1300 5869 c0 -5 5 -7 10 -4 6 3 10 8 10 11 0 2 -4 4 -10 4 -5 0 -10
-5 -10 -11z"/>
<path d="M1226 5821 c-4 -7 -5 -15 -2 -18 9 -9 19 4 14 18 -4 11 -6 11 -12 0z"/>
<path d="M1450 5472 c0 -5 7 -13 16 -16 10 -4 14 -1 12 6 -5 15 -28 23 -28 10z"/>
<path d="M1516 5407 c5 -18 4 -20 -7 -9 -7 6 -19 12 -27 12 -12 0 -12 -3 -2
-15 10 -12 7 -16 -16 -25 -41 -16 -66 -17 -71 -2 -3 6 2 12 10 12 13 0 32 28
25 35 -2 2 -20 -12 -41 -30 l-37 -32 35 -44 c19 -24 35 -50 35 -56 0 -27 16
-11 34 33 10 25 36 64 57 87 22 22 39 41 39 42 0 2 -9 5 -20 8 -18 4 -20 2
-14 -16z"/>
<path d="M4923 2731 c0 -11 5 -18 9 -15 4 3 5 11 1 19 -7 21 -12 19 -10 -4z"/>
<path d="M5460 2260 c-13 -28 -30 -56 -37 -62 -20 -16 -16 -25 15 -33 15 -3
37 -16 49 -27 l21 -20 12 24 c7 12 26 37 42 55 l30 31 -23 12 c-13 7 -38 25
-55 41 l-30 29 -24 -50z"/>
<path d="M5083 2224 c-18 -18 -16 -25 4 -17 12 5 15 2 11 -8 -4 -10 1 -15 12
-15 16 0 17 2 2 26 -9 14 -16 26 -16 26 -1 1 -7 -4 -13 -12z"/>
<path d="M4765 2005 c-29 -13 -29 -13 -5 -14 28 -1 57 14 44 22 -5 3 -22 -1
-39 -8z"/>
<path d="M4597 1942 c-9 -2 -15 -8 -12 -13 9 -13 -9 -11 -24 4 -11 10 -14 10
-18 0 -3 -7 -11 -13 -19 -13 -17 0 -19 -16 -2 -26 6 -4 8 -3 5 3 -3 5 7 11 23
12 59 3 68 5 64 13 -3 5 5 6 18 4 13 -3 27 -5 31 -5 5 -1 6 -5 2 -10 -3 -5 -1
-12 4 -15 5 -3 12 1 15 10 4 11 13 14 30 10 32 -8 44 10 14 20 -26 8 -105 12
-131 6z"/>
<path d="M4705 1901 c-3 -5 -1 -12 5 -16 5 -3 10 1 10 9 0 18 -6 21 -15 7z"/>
<path d="M5068 1743 c6 -2 18 -2 25 0 6 3 1 5 -13 5 -14 0 -19 -2 -12 -5z"/>
<path d="M1150 1103 c0 -5 16 -16 35 -25 26 -12 35 -12 35 -3 0 7 -8 15 -17
18 -10 2 -26 8 -35 12 -10 4 -18 3 -18 -2z"/>
<path d="M5712 1074 c10 -10 20 -16 22 -13 3 3 -5 11 -17 18 -21 13 -21 12 -5
-5z"/>
<path d="M1240 1045 c7 -8 18 -15 24 -15 6 0 22 -10 36 -23 33 -29 81 -60 86
-54 5 4 -141 107 -152 107 -4 0 -1 -7 6 -15z"/>
<path d="M5658 1043 c7 -3 16 -2 19 1 4 3 -2 6 -13 5 -11 0 -14 -3 -6 -6z"/>
<path d="M5838 1033 c-35 -9 -17 -18 27 -15 25 2 42 8 39 13 -5 9 -36 10 -66
2z"/>
<path d="M5693 1014 c3 -3 23 -10 44 -14 34 -8 36 -7 19 6 -19 13 -76 21 -63
8z"/>
<path d="M5807 993 c-3 -5 8 -8 24 -9 15 -1 26 3 23 7 -6 11 -41 12 -47 2z"/>
<path d="M5936 961 c-14 -5 -16 -10 -8 -15 7 -4 10 -11 8 -15 -3 -4 5 -13 17
-21 19 -12 21 -11 9 2 -10 13 -9 18 3 28 30 25 13 38 -29 21z"/>
<path d="M5754 922 c-8 -5 -4 -13 12 -25 13 -10 24 -13 24 -8 0 5 -5 13 -12
17 -8 5 -6 10 8 15 18 7 18 8 -1 8 -11 0 -25 -3 -31 -7z"/>
<path d="M5802 888 c3 -7 -2 -20 -10 -28 -14 -13 -14 -15 1 -18 9 -2 26 2 37
8 l22 12 -21 19 c-23 22 -34 24 -29 7z"/>
<path d="M970 870 c8 -5 40 -12 70 -15 54 -6 115 -15 135 -19 6 -1 47 -20 93
-43 45 -23 82 -38 82 -34 0 9 -51 35 -62 33 -5 -1 -8 3 -8 10 0 6 -3 9 -6 5
-4 -3 -13 1 -21 9 -8 8 -19 12 -24 9 -5 -4 -9 -2 -9 3 0 11 -49 34 -59 28 -4
-3 -23 -1 -42 4 -51 13 -167 21 -149 10z"/>
<path d="M1375 736 c11 -8 29 -15 40 -15 16 0 17 1 5 8 -8 5 -26 12 -40 16
-24 7 -24 7 -5 -9z"/>
<path d="M5965 737 c-4 -10 -5 -21 -1 -24 10 -10 18 4 13 24 -4 17 -4 17 -12
0z"/>
<path d="M5920 672 c0 -15 -9 -18 -52 -18 -35 1 -58 6 -66 16 -11 12 -11 11
-1 -9 10 -21 9 -23 -4 -18 -14 5 -15 2 -6 -20 13 -36 8 -75 -13 -93 -9 -8 -20
-27 -24 -42 -5 -24 -3 -28 15 -28 12 0 25 8 28 18 4 9 11 22 16 27 4 6 17 25
28 43 16 28 22 32 34 22 12 -10 18 -10 32 1 9 8 18 13 20 12 1 -2 14 -3 28 -3
29 0 34 16 8 23 -17 4 -17 5 0 6 23 1 24 66 1 75 -28 11 -44 6 -44 -12z"/>
<path d="M5850 550 c0 -5 5 -10 10 -10 6 0 10 5 10 10 0 6 -4 10 -10 10 -5 0
-10 -4 -10 -10z"/>
</g>
</svg>
